<?xml version="1.0" encoding="UTF-8" standalone="no"?>
<!-- Created with Serif DrawPlus 12, 0, 0, 17 (Jun 30, 16:59:35) (http://www.serif.com) -->
<svg version="1.1" xmlns="http://www.w3.org/2000/svg" xmlns:xlink="http://www.w3.org/1999/xlink" width="213.629" height="8.61733">
	<g id="selection" transform="matrix(1,0,0,1,-2.192,-2.908)">
		<path id="dp_path001" fill="maroon" fill-rule="evenodd" d="M 211.512,2.908 L 211.071,4.99333 L 210.883,5.696 L 210.253,5.332 L 208.467,4.17067 L 209.628,5.95733 L 209.992,6.58667 L 209.289,6.77467 L 207.204,7.216 L 209.289,7.65733 L 209.992,7.84533 L 209.628,8.47467 L 208.467,10.2613 L 210.253,9.1 L 210.883,8.736 L 211.071,9.43867 L 211.512,11.524 L 211.953,9.43867 L 212.141,8.736 L 212.771,9.1 L 214.557,10.2613 L 213.396,8.47467 L 213.032,7.84533 L 213.735,7.65733 L 215.82,7.216 L 213.735,6.77467 L 213.032,6.58667 L 213.396,5.95733 L 214.557,4.17067 L 212.771,5.332 L 212.141,5.696 L 211.953,4.99333 Z "/>
		<path id="dp_path002" fill="maroon" fill-rule="evenodd" d="M 15.544,11.3133 C 12.26,11.8547 9.892,10.5173 8.44,9.228 C 4.27467,8.956 2.192,7.21467 2.192,7.21467 C 2.192,7.21467 4.27467,5.47467 8.44,5.20267 C 9.892,3.91333 12.26,2.57467 15.544,3.11733 C 15.708,3.46133 15.8493,3.80667 15.9707,4.15467 C 19.3227,3.88133 20.9973,5.39733 20.9973,5.39733 C 20.9973,5.39733 19.4933,6.75733 16.484,6.668 C 16.5067,7.03333 16.5067,7.39733 16.484,7.76267 C 19.4933,7.672 20.9973,9.03333 20.9973,9.03333 C 20.9973,9.03333 19.3227,10.5493 15.9707,10.276 C 15.8507,10.6227 15.708,10.9693 15.544,11.3133 Z M 8.824,8.104 C 8.824,7.49067 8.824,6.84933 8.824,6.23467 C 7.72267,6.01333 7.172,7.16933 7.172,7.16933 C 7.172,7.16933 7.72267,8.32533 8.824,8.104 Z "/>
		<path id="dp_path003" fill="none" fill-rule="evenodd" stroke="maroon" stroke-width="0.666667" stroke-linecap="round" d="M 205.443,7.26133 L 22.6787,7.16933"/>
	</g>
</svg>