<?xml version="1.0" encoding="UTF-8" standalone="no"?>
<!-- Created with Serif DrawPlus 12, 0, 0, 17 (Jun 30, 16:59:35) (http://www.serif.com) -->
<svg version="1.1" xmlns="http://www.w3.org/2000/svg" xmlns:xlink="http://www.w3.org/1999/xlink" width="213.629" height="8.61733">
	<g id="selection" transform="matrix(1,0,0,1,-2.19333,-2.908)">
		<path id="dp_path001" fill="maroon" fill-rule="evenodd" d="M 6.50133,2.908 L 6.94267,4.99333 L 7.13067,5.696 L 7.76,5.332 L 9.54667,4.17067 L 8.38533,5.95733 L 8.02133,6.58667 L 8.724,6.77467 L 10.8093,7.216 L 8.724,7.65733 L 8.02133,7.84533 L 8.38533,8.47467 L 9.54667,10.2613 L 7.76,9.1 L 7.13067,8.736 L 6.94267,9.43867 L 6.50133,11.524 L 6.06,9.43867 L 5.872,8.736 L 5.24267,9.1 L 3.456,10.2613 L 4.61733,8.47467 L 4.98133,7.84533 L 4.27867,7.65733 L 2.19333,7.216 L 4.27867,6.77467 L 4.98133,6.58667 L 4.61733,5.95733 L 3.456,4.17067 L 5.24267,5.332 L 5.872,5.696 L 6.06,4.99333 Z "/>
		<path id="dp_path002" fill="maroon" fill-rule="evenodd" d="M 202.469,11.3133 C 205.753,11.8547 208.121,10.5173 209.573,9.228 C 213.739,8.956 215.821,7.21467 215.821,7.21467 C 215.821,7.21467 213.739,5.47467 209.573,5.20267 C 208.121,3.91333 205.753,2.57467 202.469,3.11733 C 202.305,3.46133 202.164,3.80667 202.043,4.15467 C 198.691,3.88133 197.016,5.39733 197.016,5.39733 C 197.016,5.39733 198.52,6.75733 201.529,6.668 C 201.507,7.03333 201.507,7.39733 201.529,7.76267 C 198.52,7.672 197.016,9.03333 197.016,9.03333 C 197.016,9.03333 198.691,10.5493 202.043,10.276 C 202.163,10.6227 202.305,10.9693 202.469,11.3133 Z M 209.189,8.104 C 209.189,7.49067 209.189,6.84933 209.189,6.23467 C 210.291,6.01333 210.841,7.16933 210.841,7.16933 C 210.841,7.16933 210.291,8.32533 209.189,8.104 Z "/>
		<path id="dp_path003" fill="none" fill-rule="evenodd" stroke="maroon" stroke-width="0.666667" stroke-linecap="round" d="M 12.5707,7.26133 L 195.335,7.16933"/>
	</g>
</svg>